<svg width="92" height="60" viewBox="0 0 92 60" fill="none" xmlns="http://www.w3.org/2000/svg">
<g id="logoHeader">
<g id="Group">
<path id="Vector" d="M17.4999 33.6C14.4999 33.6 13.3999 36 13.3999 38.1C13.3999 40.2 14.4999 42.6 17.4999 42.6C20.4999 42.6 21.5999 40.2 21.5999 38.1C21.5999 36 20.4999 33.6 17.4999 33.6ZM17.4999 41.7C15.6999 41.7 14.4999 40.2 14.4999 38.1C14.4999 35.9 15.6999 34.5 17.4999 34.5C19.2999 34.5 20.4999 36 20.4999 38.1C20.3999 40.2 19.1999 41.7 17.4999 41.7Z" fill="white"/>
<path id="Vector_2" d="M23.6001 35.1V33.7H22.6001V42.3H23.6001V38.1V38C23.6001 36.4 24.0001 34.5 26.2001 34.5H26.5001L26.6001 33.5H26.5001C25.0001 33.5 24.0001 34.1 23.6001 35.1Z" fill="white"/>
<path id="Vector_3" d="M44.6001 35.4C43.9001 35.2 43.4001 35 42.5001 35C41.9001 35 41.1001 35.2 41.1001 36C41.1001 37.4 45.2001 36.5 45.2001 39.6C45.2001 41.6 43.3001 42.4 41.4001 42.4C40.5001 42.4 39.6 42.2 38.8 42L38.9001 40.1C39.6001 40.5 40.4001 40.7 41.2001 40.7C41.8001 40.7 42.7001 40.5 42.7001 39.6C42.7001 37.9 38.6001 39.1 38.6001 35.9C38.6001 34 40.3001 33.2 42.1001 33.2C43.2001 33.2 43.9001 33.4 44.6001 33.5V35.4Z" fill="white"/>
<path id="Vector_4" d="M57.6999 33.6H55.3999V42.3H57.6999V33.6Z" fill="white"/>
<path id="Vector_5" d="M72.2998 35.4C71.5998 35.2 71.0998 35 70.1998 35C69.5998 35 68.7998 35.2 68.7998 36C68.7998 37.4 72.8998 36.5 72.8998 39.6C72.8998 41.6 70.9999 42.4 69.0999 42.4C68.1999 42.4 67.2998 42.2 66.4998 42L66.5999 40.1C67.2999 40.5 68.0998 40.7 68.8998 40.7C69.4998 40.7 70.3998 40.5 70.3998 39.6C70.3998 37.9 66.2998 39.1 66.2998 35.9C66.2998 34 67.9998 33.2 69.7998 33.2C70.8998 33.2 71.5998 33.4 72.2998 33.5V35.4Z" fill="white"/>
<path id="Vector_6" d="M50.8998 37.5L54.1998 33.6H51.3998L48.6998 37.1H48.5999V28.9L46.2998 29.6V42.3H48.5999V38.1H48.6998L51.5999 42.3H54.5999L50.8998 37.5Z" fill="white"/>
<path id="Vector_7" d="M37.2999 29.4L36.2999 29.7V35C36.0999 34.6 35.2999 33.5 33.4999 33.6C30.4999 33.6 29.8999 36.1 29.8999 38.1C29.8999 40.9 31.2999 42.6 33.4999 42.6C34.7999 42.6 35.6999 42.1 36.2999 41.1V42.4H37.2999V29.4ZM33.5999 41.6C31.1999 41.6 30.8999 39.1 30.8999 38C30.8999 36.9 31.1999 34.4 33.5999 34.4C35.3999 34.4 36.2999 36.2 36.2999 38C36.2999 39.8 35.4999 41.6 33.5999 41.6Z" fill="white"/>
<path id="Vector_8" d="M28.6 29.4L27.7 29.7V42.3H28.7V29.4H28.6Z" fill="white"/>
<path id="Vector_9" d="M59.2998 29.6V42.3H61.5999V28.9L59.2998 29.6Z" fill="white"/>
<path id="Vector_10" d="M62.8999 29.6V42.3H65.2999V28.9L62.8999 29.6Z" fill="white"/>
<path id="Vector_11" d="M57.8998 30.3C57.8998 29.6 57.2999 29 56.5999 29C55.8999 29 55.2998 29.6 55.2998 30.3C55.2998 31 55.8999 31.6 56.5999 31.6C57.3999 31.6 57.8998 31.1 57.8998 30.3Z" fill="white"/>
<path id="Vector_12" d="M1.29993 33.7H0.199951C0.299951 33.9 2.99994 42.1 2.99994 42.2H4.29993L6.69995 34.8H6.79993L9.19995 42.2H10.4999L13.4 33.6H12.4C12.4 33.6 9.99996 41 9.89996 41H9.79993L7.49994 33.6H6.19995L3.69995 41H3.59998C3.59998 41.1 1.29993 33.7 1.29993 33.7Z" fill="white"/>
<path id="Vector_13" d="M53.2998 14.7C53.2998 14.7 57.3998 14 58.6998 10.7C58.6998 10.7 82.4998 15.6 68.4998 28.3C68.4998 28.3 73.6998 23.4 70.7998 19.5C70.7998 19.5 72.3999 24.4 66.0999 27.7C66.0999 27.6 79.8998 17.8 53.2998 14.7Z" fill="white"/>
<path id="Vector_14" d="M66.3999 12.9C68.0999 13.7 69.1999 14.5 69.8999 15.1C70.1999 6.60001 64.0999 1.79999 64.0999 1.79999C63.8999 2.29999 63.3999 2.99998 62.5999 3.19998C61.7999 3.49998 61.3999 4.39999 61.3999 4.39999C64.3999 6.89999 65.7999 9.89999 66.3999 12.9Z" fill="white"/>
<path id="Vector_15" d="M58.1001 11.3C58.5001 10.8 58.6001 10.4 58.6001 10.4C60.2001 10.7 61.6 11 62.8 11.5C60.2 4.1 55.3 0 55.3 0C55.2 0.4 53.7 1.1 52.8 1.5C51.8 1.9 52.1001 3.69998 52.1001 3.69998C54.8001 5.89998 56.7001 8.59999 58.1001 11.3Z" fill="white"/>
<path id="Vector_16" d="M68.1001 19.5C67.8001 23.2 65.6001 27.1 65.6001 27.1C67.1001 24.8 68.2001 22.6 68.9001 20.5C68.7001 20.2 68.4001 19.9 68.1001 19.5Z" fill="white"/>
<path id="Vector_17" d="M67.7999 19.3C67.3999 19 66.9999 18.7 66.5999 18.4C66.1999 22.4 64.8999 25.3 64.8999 25.3C65.6999 24.4 66.1999 23 66.1999 23C66.1999 24 65.3999 25.9 65.3999 25.9C66.8999 23.8 67.4999 21 67.7999 19.3Z" fill="white"/>
<path id="Vector_18" d="M59.6001 27C58.8001 26.5 57.5001 26.1 55.0001 24.1C56.9001 25.5 60.1001 26.5 60.1001 26.5C53.1001 22.9 51.5001 19.7 51.5001 19.7C50.8001 19.7 50.4001 20.1 50.1001 20.3C49.8001 20.4 49.1001 20.4 49.1001 20.4C51.8001 24.6 59.6001 27 59.6001 27Z" fill="white"/>
<path id="Vector_19" d="M56.4 15.3C54.1 14.9 52.3 14.8 52.3 14.8C53.2 14.6 54 14.3 54.7 14C51.4 11.6 48.1 11 48.1 11C48.1 11 47.5 11.2 47.4 12.2C47.3 13.2 46.5 13.4 46.5 13.4C58.8 16.7 60.7 26.8 60.7 26.8C59.9 22.2 58.1 19.3 58.1 19.3C60 21.2 61.3 26.1 61.3 26.1C60.9 21 58.8 17.6 56.4 15.3Z" fill="white"/>
<path id="Vector_20" d="M60.1001 16.1C61.9001 21.6 61.9001 26.2 61.9001 26.2C63.2001 23.7 62.9001 17.8 62.9001 17.8C64.1001 20.2 64.0001 26.7 64.0001 26.7C64.6001 23.3 64.7 20.2 64.3 17.3C62.9 16.8 61.5001 16.4 60.1001 16.1Z" fill="white"/>
</g>
<g id="Group_2">
<path id="Vector_21" d="M0.299988 54.0999C0.899988 54.5999 1.79999 54.7999 2.79999 54.7999C3.49999 54.7999 4.20004 54.5999 4.60004 54.1999C5.10004 53.7999 5.29999 53.1999 5.29999 52.3999C5.29999 51.7999 5 51.3999 4.5 50.9999C4.3 50.7999 4.00001 50.5999 3.70001 50.3999C3.40001 50.1999 3.10001 49.9999 2.70001 49.8999C2.40001 49.6999 2.10001 49.4999 1.70001 49.2999C1.40001 49.0999 1.09999 48.8999 0.799988 48.5999C0.299988 48.0999 0 47.4999 0 46.7999C0 45.8999 0.400037 45.0999 1.10004 44.5999C1.80004 44.0999 2.60001 43.7999 3.70001 43.7999C4.00001 43.7999 4.29999 43.7999 4.79999 43.8999C5.19999 43.9999 5.6 44.0999 6 44.1999L5.79999 45.1999C5.19999 44.8999 4.50001 44.7999 3.70001 44.7999C3.40001 44.7999 3.09999 44.7999 2.79999 44.8999C2.49999 44.9999 2.2 45.0999 2 45.1999C1.8 45.2999 1.60002 45.4999 1.40002 45.7999C1.20002 46.0999 1.20001 46.3999 1.20001 46.7999C1.20001 47.0999 1.30002 47.2999 1.40002 47.5999C1.60002 47.7999 1.8 47.9999 2 48.1999C2.3 48.3999 2.50002 48.5999 2.90002 48.6999C3.20002 48.8999 3.50002 49.0999 3.90002 49.1999C4.60002 49.4999 5.20001 49.8999 5.70001 50.4999C6.00001 50.6999 6.19999 50.9999 6.29999 51.3999C6.39999 51.6999 6.5 52.0999 6.5 52.4999C6.5 53.5999 6.09999 54.4999 5.29999 54.9999C4.49999 55.4999 3.70001 55.7999 2.70001 55.7999C1.60001 55.7999 0.700037 55.5999 0.100037 55.2999L0.299988 54.0999Z" fill="white"/>
<path id="Vector_22" d="M7.8999 43.2H8.8999V48.6C9.0999 48.1 9.4999 47.7 9.8999 47.4C10.3999 47.1 10.8999 47 11.4999 47C12.5999 47 13.3999 47.3 13.7999 48C14.1999 48.7 14.3999 49.5 14.3999 50.6V55.6H13.3999V50.6C13.3999 50.2 13.3999 49.9 13.2999 49.5C13.2999 49.2 13.1999 48.9 12.9999 48.7C12.6999 48.2 12.1999 47.9 11.3999 47.9C10.4999 47.9 9.89988 48.3 9.49988 48.9C9.09988 49.6 8.8999 50.3 8.8999 51.1V55.6H7.8999V43.2Z" fill="white"/>
<path id="Vector_23" d="M21 54.1999C20.7 54.6999 20.4 55.0999 19.9 55.2999C19.4 55.5999 18.9 55.6999 18.3 55.6999C17.7 55.6999 17.2 55.5999 16.9 55.3999C16.5 55.1999 16.2 54.9999 16 54.7999C15.6 54.2999 15.5 53.7999 15.5 53.2999C15.5 52.5999 15.7 51.9999 16 51.5999C16.3 51.1999 16.8 50.8999 17.3 50.6999C17.8 50.4999 18.4 50.3999 19 50.2999C19.6 50.2999 20.2 50.2999 20.7 50.2999H20.9V49.8999C20.9 48.4999 20.3 47.6999 19 47.6999C18.1 47.6999 17.3 47.8999 16.5 48.3999V47.3999C17.3 46.9999 18.1 46.7999 19 46.7999C21 46.7999 22 47.7999 21.9 49.8999V53.5999C21.9 54.1999 21.9 54.7999 22 55.3999H21V54.1999ZM20.9 51.2999H20.6C20.1 51.2999 19.7 51.2999 19.2 51.2999C18.7 51.2999 18.3 51.3999 17.9 51.5999C17.5 51.6999 17.2 51.8999 17 52.1999C16.7 52.4999 16.6 52.7999 16.6 53.2999C16.6 53.7999 16.8 54.1999 17.1 54.4999C17.4 54.6999 17.8 54.8999 18.3 54.8999C18.9 54.8999 19.4 54.7999 19.7 54.4999C20 54.2999 20.3 53.9999 20.4 53.6999C20.6 53.3999 20.7 52.9999 20.7 52.6999C20.7 52.3999 20.7 52.0999 20.7 51.8999V51.2999H20.9Z" fill="white"/>
<path id="Vector_24" d="M23.6 49.1C23.6 48.5 23.6 47.8 23.5 47.1H24.5V48.6C24.6 48.4 24.7 48.2 24.8 48C24.9 47.8 25.1 47.6 25.3 47.5C25.5 47.3 25.8 47.2 26.1 47.1C26.4 47 26.8 47 27.2 47C28.2 47 29 47.3 29.4 47.9C29.8 48.5 30 49.3 30 50.2V55.6H29V50.5C29 49.7 28.9 49.1 28.6 48.6C28.3 48.1 27.8 47.9 27.1 47.9C26.2 47.9 25.5 48.3 25.2 48.9C25 49.2 24.9 49.5 24.8 49.9C24.7 50.3 24.7 50.6 24.7 51V55.6H23.7V49.1H23.6Z" fill="white"/>
<path id="Vector_25" d="M38.6 54.9C38.6 56.1 38.3 57.1 37.7 57.9C37.1 58.7 36.1 59.1 34.6 59.2C34 59.2 33.5 59.1 33.1 59C32.6 58.9 32.3 58.8 32.1 58.7L32.2 57.7C32.9 58.1 33.7 58.3 34.7 58.3C35.4 58.3 35.9 58.2 36.3 57.9C36.7 57.7 37 57.4 37.2 57C37.4 56.6 37.5 56.1 37.6 55.6C37.6 55.1 37.7 54.5 37.7 53.9C37.1 55 36.3 55.6 35.1 55.5C33.8 55.5 32.9 55 32.3 54.1C32 53.7 31.8 53.2 31.7 52.7C31.6 52.2 31.5 51.7 31.5 51.3C31.5 50 31.8 48.9 32.3 48.1C32.8 47.3 33.7 46.9 35 46.9C35.5 46.9 36 47 36.4 47.1C36.8 47.3 37.2 47.6 37.6 48.1V47.1H38.7V54.9H38.6ZM32.6 51.4C32.6 52.3 32.8 53 33.2 53.7C33.6 54.4 34.2 54.7 35.1 54.8C36 54.8 36.7 54.4 37.1 53.7C37.5 53 37.7 52.3 37.7 51.5C37.7 50.5 37.5 49.6 37.2 49C36.8 48.4 36.2 48 35.2 48C34.7 48 34.3 48.1 34 48.3C33.7 48.5 33.4 48.8 33.2 49.1C33 49.4 32.9 49.8 32.8 50.2C32.6 50.5 32.6 50.9 32.6 51.4Z" fill="white"/>
<path id="Vector_26" d="M40.3 43.2H41.3V48.6C41.5 48.1 41.9 47.7 42.3 47.4C42.8 47.1 43.3001 47 43.9001 47C45.0001 47 45.8001 47.3 46.2001 48C46.6001 48.7 46.8 49.5 46.8 50.6V55.6H45.8V50.6C45.8 50.2 45.8001 49.9 45.7001 49.5C45.7001 49.2 45.6001 48.9 45.4001 48.7C45.1001 48.2 44.6 47.9 43.8 47.9C42.9 47.9 42.3001 48.3 41.9001 48.9C41.5001 49.6 41.3 50.3 41.3 51.1V55.6H40.3V43.2Z" fill="white"/>
<path id="Vector_27" d="M53.3999 54.1999C53.0999 54.6999 52.7999 55.0999 52.2999 55.2999C51.7999 55.5999 51.2999 55.6999 50.6999 55.6999C50.0999 55.6999 49.5999 55.5999 49.2999 55.3999C48.8999 55.1999 48.5999 54.9999 48.3999 54.7999C47.9999 54.2999 47.8999 53.7999 47.8999 53.2999C47.8999 52.5999 48.0999 51.9999 48.3999 51.5999C48.6999 51.1999 49.1999 50.8999 49.6999 50.6999C50.1999 50.4999 50.7999 50.3999 51.3999 50.2999C51.9999 50.2999 52.5999 50.2999 53.0999 50.2999H53.2999V49.8999C53.2999 48.4999 52.6999 47.6999 51.3999 47.6999C50.4999 47.6999 49.6999 47.8999 48.8999 48.3999V47.3999C49.6999 46.9999 50.4999 46.7999 51.3999 46.7999C53.3999 46.7999 54.3999 47.7999 54.2999 49.8999V53.5999C54.2999 54.1999 54.2999 54.7999 54.3999 55.3999H53.3999V54.1999ZM53.2999 51.2999H52.9999C52.4999 51.2999 52.0999 51.2999 51.5999 51.2999C51.0999 51.2999 50.6999 51.3999 50.2999 51.5999C49.8999 51.6999 49.5999 51.8999 49.3999 52.1999C49.0999 52.4999 48.9999 52.7999 48.9999 53.2999C48.9999 53.7999 49.1999 54.1999 49.4999 54.4999C49.7999 54.6999 50.1999 54.8999 50.6999 54.8999C51.2999 54.8999 51.7999 54.7999 52.0999 54.4999C52.3999 54.2999 52.6999 53.9999 52.7999 53.6999C52.9999 53.3999 53.0999 52.9999 53.0999 52.6999C53.0999 52.3999 53.0999 52.0999 53.0999 51.8999V51.2999H53.2999Z" fill="white"/>
<path id="Vector_28" d="M57.1 44.9H56.1V43.5H57.1V44.9ZM56 47.2H57V55.6H56V47.2Z" fill="white"/>
<path id="Vector_29" d="M59.5 54.6L62.1 51.7C62.8 50.9 63.5 50.1 64 49.3C64.5 48.5 64.8 47.7 64.9 47C64.9 46.4 64.7 45.9 64.3 45.5C63.9 45.1 63.4 44.9 62.9 44.9C61.9 44.9 61 45.2 60.1 45.7L59.9 44.7C60.3 44.5 60.8 44.3 61.3 44.1C61.8 44 62.3 43.9 62.8 43.9C63.8 43.9 64.6 44.1 65.2 44.6C65.8 45.1 66.1 45.9 66.2 46.9C66.2 47.8 65.8 48.7 65.2 49.6C64.6 50.5 63.8 51.4 63.1 52.3L61 54.6H66.5V55.6H59.6V54.6H59.5Z" fill="white"/>
<path id="Vector_30" d="M71.2 44C72 44 72.6 44.2 73.1 44.5C73.6 44.9 74 45.3 74.3 45.9C74.8 47.1 75 48.4 75 49.9C75 50.5 75 51.1 74.9 51.8C74.8 52.5 74.6 53.1 74.4 53.7C74.1 54.3 73.8 54.8 73.3 55.1C72.8 55.5 72.1 55.7 71.3 55.7C70.5 55.7 69.9 55.5 69.4 55.1C68.9 54.7 68.5 54.2 68.2 53.7C67.9 53.1 67.8 52.5 67.7 51.8C67.6 51.1 67.5 50.5 67.6 49.9C67.6 48.5 67.8 47.2 68.3 45.9C68.6 45.3 69 44.9 69.5 44.5C69.8 44.1 70.4 44 71.2 44ZM71.2 44.9C70.6 44.9 70.1 45.1 69.8 45.4C69.4 45.7 69.2 46.1 69 46.6C68.8 47.1 68.7 47.6 68.7 48.2C68.6 48.8 68.6 49.3 68.6 49.8C68.6 50.3 68.6 50.8 68.7 51.4C68.8 51.9 68.9 52.5 69 53C69.2 53.5 69.4 53.9 69.8 54.2C70.1 54.5 70.6 54.7 71.2 54.7C71.8 54.7 72.3 54.5 72.6 54.2C73 53.9 73.2 53.5 73.4 53C73.6 52.5 73.7 52 73.8 51.4C73.8 50.8 73.8 50.3 73.8 49.8C73.8 49.3 73.8 48.8 73.8 48.2C73.7 47.7 73.6 47.1 73.4 46.6C73.2 46.1 73 45.7 72.6 45.4C72.2 45.1 71.8 45 71.2 44.9Z" fill="white"/>
<path id="Vector_31" d="M75.7 54.6L78.2999 51.7C78.9999 50.9 79.7 50.1 80.2 49.3C80.7 48.5 81 47.7 81.1 47C81.1 46.4 80.8999 45.9 80.4999 45.5C80.0999 45.1 79.6 44.9 79.1 44.9C78.1 44.9 77.1999 45.2 76.2999 45.7L76.1 44.7C76.5 44.5 76.9999 44.3 77.4999 44.1C77.9999 44 78.4999 43.9 78.9999 43.9C79.9999 43.9 80.8 44.1 81.4 44.6C82 45.1 82.3 45.9 82.4 46.9C82.4 47.8 82 48.7 81.4 49.6C80.8 50.5 79.9999 51.4 79.2999 52.3L77.2 54.6H82.7V55.6H75.7999V54.6H75.7Z" fill="white"/>
<path id="Vector_32" d="M87.2001 55.7C86.4001 55.7 85.8001 55.5 85.4001 55.2C84.9001 54.9 84.5 54.5 84.3 54C84 53.5 83.9 52.9 83.8 52.3C83.7 51.7 83.6001 51 83.6001 50.3C83.6001 48.5 84 47 84.8 45.9C85.6 44.7 86.9 44.1 88.8 44.1C89.4 44.1 90.0001 44.2 90.6001 44.4L90.5001 45.5C90.0001 45.3 89.3001 45.1 88.6001 45.1C87.9001 45.1 87.2 45.2 86.8 45.5C86.3 45.8 85.9001 46.1 85.6001 46.6C85.3001 47.1 85.1001 47.6 85.0001 48.1C84.9001 48.7 84.8 49.3 84.8 49.9C85.1 49.4 85.5001 49 86.0001 48.8C86.5001 48.6 87.0001 48.5 87.5001 48.5C87.9001 48.5 88.3001 48.5 88.7001 48.6C89.1001 48.7 89.5001 48.9 89.9001 49.2C90.3001 49.5 90.6 49.8 90.8 50.3C91 50.8 91.1001 51.4 91.1001 52.1C91.1001 53.2 90.8001 54.1 90.1001 54.8C89.3001 55.3 88.4001 55.7 87.2001 55.7ZM87.4001 49.3C86.6001 49.3 85.9001 49.5 85.5001 50C85.0001 50.5 84.8 51.1 84.8 51.9C84.8 52.6 85.0001 53.3 85.4001 53.8C85.8001 54.4 86.4 54.7 87.3 54.7C88.1 54.7 88.8001 54.4 89.2001 53.9C89.6001 53.4 89.8 52.8 89.8 52C89.8 50.2 89.0001 49.3 87.4001 49.3Z" fill="white"/>
</g>
</g>
</svg>
