<svg width="68" height="40" viewBox="0 0 68 40" fill="none" xmlns="http://www.w3.org/2000/svg">
<g id="ftLogo">
<g id="Group 7">
<path id="Vector" d="M16.1001 31.2998C13.3001 31.2998 12.3 33.5 12.3 35.5C12.3 37.4 13.3001 39.7002 16.1001 39.7002C18.9001 39.7002 19.9 37.4 19.9 35.5C19.9 33.5 18.9001 31.2998 16.1001 31.2998ZM16.1001 38.7998C14.4001 38.7998 13.3 37.4004 13.3 35.4004C13.3 33.4004 14.4001 32 16.1001 32C17.8001 32 18.9 33.4004 18.9 35.4004C18.8 37.5004 17.7001 38.7998 16.1001 38.7998Z" fill="white"/>
<path id="Vector_2" d="M21.7001 32.7002V31.4004H20.8V39.4004H21.8V35.5V35.4004C21.8 33.9004 22.2001 32.2002 24.2001 32.2002H24.5V31.2998H24.4C23.1 31.2998 22.2001 31.8002 21.7001 32.7002Z" fill="white"/>
<path id="Vector_3" d="M41.3002 33C40.6002 32.8 40.1001 32.7002 39.4001 32.7002C38.8001 32.7002 38.1002 32.8996 38.1002 33.5996C38.1002 34.8996 41.9001 34.1 41.9001 37C41.9001 38.9 40.2001 39.5996 38.4001 39.5996C37.6001 39.5996 36.7001 39.4998 35.9001 39.2998L36.0001 37.5996C36.7001 37.8996 37.4002 38.0996 38.1002 38.0996C38.7002 38.0996 39.5001 37.8996 39.5001 37.0996C39.5001 35.4996 35.7002 36.6002 35.7002 33.7002C35.7002 32.0002 37.3001 31.2002 39.0001 31.2002C40.0001 31.2002 40.7001 31.4 41.4001 31.5L41.3002 33Z" fill="white"/>
<path id="Vector_4" d="M53.7001 31.2998H51.5V39.4004H53.7001V31.2998Z" fill="white"/>
<path id="Vector_5" d="M67.2001 33C66.5001 32.8 66 32.7002 65.3 32.7002C64.7 32.7002 64 32.8996 64 33.5996C64 34.8996 67.8 34.1 67.8 37C67.8 38.9 66.1 39.5996 64.3 39.5996C63.5 39.5996 62.6 39.4998 61.8 39.2998L61.9 37.5996C62.6 37.8996 63.3 38.0996 64 38.0996C64.6 38.0996 65.4 37.8996 65.4 37.0996C65.4 35.4996 61.6001 36.6002 61.6001 33.7002C61.6001 32.0002 63.2 31.2002 64.9 31.2002C65.9 31.2002 66.6 31.4 67.3 31.5L67.2001 33Z" fill="white"/>
<path id="Vector_6" d="M47.2 34.9004L50.2999 31.2998H47.7L45.1 34.5V26.9004L42.8999 27.5996V39.4004H45.1V35.5L47.8999 39.4004H50.7L47.2 34.9004Z" fill="white"/>
<path id="Vector_7" d="M34.5 27.4004L33.6001 27.7002V32.5996C33.4001 32.2996 32.6 31.1998 31 31.2998C28.2 31.2998 27.6001 33.6 27.6001 35.5C27.6001 38.1 28.9 39.7002 31 39.7002C32.2 39.7002 33.1001 39.1998 33.6001 38.2998V39.5H34.6001L34.5 27.4004ZM31.1001 38.7998C28.9001 38.7998 28.6001 36.4004 28.6001 35.4004C28.6001 34.4004 28.8001 32 31.1001 32C32.8001 32 33.6001 33.7004 33.6001 35.4004C33.6001 37.1004 32.9001 38.7998 31.1001 38.7998Z" fill="white"/>
<path id="Vector_8" d="M26.5 27.4004L25.6001 27.7002V39.4004H26.5V27.4004Z" fill="white"/>
<path id="Vector_9" d="M55 27.5996V39.4004H57.2001V26.9004L55 27.5996Z" fill="white"/>
<path id="Vector_10" d="M58.5 27.5996V39.4004H60.6001V26.9004L58.5 27.5996Z" fill="white"/>
<path id="Vector_11" d="M53.7999 28.2998C53.7999 27.5998 53.3 27.0996 52.6 27.0996C51.9 27.0996 51.3999 27.5998 51.3999 28.2998C51.3999 28.9998 51.9 29.5 52.6 29.5C53.3 29.5 53.7999 28.8998 53.7999 28.2998Z" fill="white"/>
<path id="Vector_12" d="M1 31.4004H0C0 31.5004 2.6001 39.1998 2.6001 39.2998H3.80005C3.80005 39.2998 6.0001 32.4004 6.1001 32.4004H6.20007L8.5 39.2998H9.70007L12.4 31.2998H11.4L9.1001 38.2002H9L6.80005 31.2998H5.6001L3.30005 38.2002H3.20007C3.10007 38.3002 1 31.4004 1 31.4004Z" fill="white"/>
<path id="Vector_13" d="M49.5 13.7002C49.5 13.7002 53.3001 13 54.6001 10C54.6001 10 76.8001 14.6004 63.7001 26.4004C63.7001 26.4004 68.6 21.8002 65.8 18.2002C65.8 18.2002 67.3 22.7998 61.4 25.7998C61.4 25.6998 74.3 16.6002 49.5 13.7002Z" fill="white"/>
<path id="Vector_14" d="M61.7001 12C63.3001 12.8 64.3 13.5 65 14C65.3 6 59.6001 1.59961 59.6001 1.59961C59.4001 2.09961 58.9001 2.70039 58.2001 2.90039C57.5001 3.20039 57.1001 4 57.1001 4C59.8001 6.4 61.2001 9.2 61.7001 12Z" fill="white"/>
<path id="Vector_15" d="M54.0001 10.5C54.3001 10 54.4002 9.7002 54.4002 9.7002C55.9002 10.0002 57.2002 10.3002 58.4002 10.7002C56.0002 3.8002 51.4002 0 51.4002 0C51.3002 0.4 49.9001 1.00039 49.0001 1.40039C48.1001 1.80039 48.3002 3.5 48.3002 3.5C50.9002 5.5 52.7001 8 54.0001 10.5Z" fill="white"/>
<path id="Vector_16" d="M63.3 18.2002C63 21.6002 61 25.2998 61 25.2998C62.4 23.0998 63.4001 21.1002 64.1001 19.2002C63.8001 18.8002 63.6 18.5002 63.3 18.2002Z" fill="white"/>
<path id="Vector_17" d="M63.0001 18C62.7001 17.7 62.3002 17.4002 61.8002 17.2002C61.4002 20.9002 60.2002 23.7002 60.2002 23.7002C60.9002 22.9002 61.5001 21.5996 61.5001 21.5996C61.5001 22.4996 60.8002 24.2998 60.8002 24.2998C62.1002 22.1998 62.8001 19.6 63.0001 18Z" fill="white"/>
<path id="Vector_18" d="M55.3 25.0996C54.5 24.6996 53.4 24.2004 51 22.4004C52.8 23.7004 55.8 24.5996 55.8 24.5996C49.2 21.2996 47.8 18.2002 47.8 18.2002C47.2 18.2002 46.8 18.6002 46.5 18.7002C46.2 18.8002 45.6001 18.7998 45.6001 18.7998C48.1001 22.9998 55.3 25.0996 55.3 25.0996Z" fill="white"/>
<path id="Vector_19" d="M52.4 14.2998C50.2 13.8998 48.6001 13.7998 48.6001 13.7998C49.5001 13.5998 50.2 13.3 50.8 13C47.7 10.8 44.7001 10.2002 44.7001 10.2002C44.7001 10.2002 44.1001 10.3998 44.1001 11.2998C44.0001 12.1998 43.3 12.4004 43.3 12.4004C54.8 15.5004 56.5 24.9004 56.5 24.9004C55.7 20.6004 54.1001 17.9004 54.1001 17.9004C55.9001 19.7004 57.1001 24.2998 57.1001 24.2998C56.6001 19.5998 54.6 16.3998 52.4 14.2998Z" fill="white"/>
<path id="Vector_20" d="M55.8 15C57.5 20.1 57.5 24.4004 57.5 24.4004C58.7 22.0004 58.4 16.5996 58.4 16.5996C59.5 18.7996 59.4 24.9004 59.4 24.9004C60 21.7004 60.0001 18.8002 59.7001 16.2002C58.5001 15.6002 57.1 15.3 55.8 15Z" fill="white"/>
</g>
</g>
</svg>
